<svg width="1970" height="600" xmlns="http://www.w3.org/2000/svg">
 <style type="text/css">.st0{display:none;}
	.st1{display:inline;fill:#1C1C1C;}
	.st2{display:inline;opacity:0.49;}
	.st3{fill:none;stroke:#29E489;stroke-width:2;stroke-miterlimit:10;}
	.st4{fill:#29E489;}
	.st5{display:inline;fill:#202040;}
	.st6{display:inline;}
	.st7{fill:#FFFFFF;}
	.st8{display:inline;opacity:0.59;}
	.st9{fill:none;stroke:#FFFFFF;stroke-width:12;stroke-miterlimit:10;}
	.st10{fill:#1C1C1C;}
	.st11{display:inline;fill:none;stroke:#29E489;stroke-width:17;stroke-linecap:round;stroke-linejoin:round;stroke-miterlimit:10;}
	.st12{display:inline;opacity:0.49;fill:none;stroke:#29E489;stroke-width:2;stroke-miterlimit:10;}
	.st13{display:inline;opacity:0.39;}
	.st14{display:inline;fill:none;stroke:#75DAAD;stroke-width:18;stroke-miterlimit:10;}
	.st15{display:inline;fill:none;stroke:#C70039;stroke-width:17;stroke-linecap:round;stroke-linejoin:round;stroke-miterlimit:10;}
	.st16{display:inline;fill:none;stroke:#F0A500;stroke-width:17;stroke-linecap:round;stroke-linejoin:round;stroke-miterlimit:10;}
	.st17{display:inline;fill:none;stroke:#FF5733;stroke-width:17;stroke-linecap:round;stroke-linejoin:round;stroke-miterlimit:10;}
	.st18{fill:none;stroke:#29E489;stroke-width:17;stroke-linecap:round;stroke-linejoin:round;stroke-miterlimit:10;}
	.st19{fill:none;stroke:#C70039;stroke-width:17;stroke-linecap:round;stroke-linejoin:round;stroke-miterlimit:10;}
	.st20{fill:none;stroke:#F0A500;stroke-width:17;stroke-linecap:round;stroke-linejoin:round;stroke-miterlimit:10;}
	.st21{fill:none;stroke:#FF5733;stroke-width:17;stroke-linecap:round;stroke-linejoin:round;stroke-miterlimit:10;}
	.st22{fill:#202040;}
	.st23{fill:none;stroke:#FFFFFF;stroke-width:7;stroke-miterlimit:10;}</style>

 <g>
  <title>background</title>
  <rect fill="none" id="canvas_background" height="602" width="1972" y="-1" x="-1"/>
 </g>
 <g>
  <title>Layer 1</title>
  <g id="svg_1">
   <g id="svg_2">
    <path id="svg_3" d="m993.5,186.80035c0,-48 36.5,-83.4 85.9,-83.4c23.9,0 45.4,8 59.9,23.9l-11,11c-13.3,-13.6 -29.7,-19.4 -48.5,-19.4c-39.6,0 -69.3,29 -69.3,67.9c0,38.9 29.7,67.9 69.3,67.9c18.7,0 35.1,-5.9 48.5,-19.7l11,11c-14.5,15.9 -36.1,24.1 -60.2,24.1c-49.1,0.1 -85.6,-35.3 -85.6,-83.3z" class="st22"/>
    <path id="svg_4" d="m1158.3,186.80035c0,-47.8 36.5,-83.4 86.2,-83.4c49.2,0 85.9,35.4 85.9,83.4c0,48 -36.8,83.4 -85.9,83.4c-49.7,0 -86.2,-35.6 -86.2,-83.4zm154.8,0c0,-39.1 -29.3,-67.9 -68.6,-67.9c-39.6,0 -69.1,28.8 -69.1,67.9c0,39.1 29.5,67.9 69.1,67.9c39.3,0 68.6,-28.8 68.6,-67.9z" class="st22"/>
    <path id="svg_5" d="m1369.3,104.90035l66.7,0c52.4,0 87.8,33.7 87.8,81.9c0,48.2 -35.4,82 -87.8,82l-66.7,0l0,-163.9zm65.8,148.9c43.6,0 71.6,-27.6 71.6,-67c0,-39.3 -28.1,-67 -71.6,-67l-48.5,0l0,133.9l48.5,0l0,0.1z" class="st22"/>
    <path id="svg_6" d="m1562.7,104.90035l17.3,0l0,163.9l-17.3,0l0,-163.9z" class="st22"/>
    <path id="svg_7" d="m1770.4,104.90035l0,163.9l-14.3,0l-105.4,-133l0,133l-17.3,0l0,-163.9l14.3,0l105.6,133l0,-133l17.1,0z" class="st22"/>
    <path id="svg_8" d="m1939.2,186.80035l16.6,0l0,62.5c-15.5,13.8 -37.5,20.8 -60.2,20.8c-49.9,0 -86.4,-35.4 -86.4,-83.4c0,-48 36.5,-83.4 86.6,-83.4c24.8,0 46.4,8 60.9,23.6l-10.8,11c-13.8,-13.6 -30.2,-19.2 -49.4,-19.2c-40.5,0 -70.2,28.8 -70.2,67.9c0,38.9 29.7,67.9 70,67.9c15.7,0 30.2,-3.5 42.8,-12.6l0,-55.1l0.1,0z" class="st22"/>
    <path id="svg_9" d="m1045.9,345.50035l0,48.8l85.5,0l0,34.3l-85.5,0l0,67.3l-42.7,0l0,-184.7l139.5,0l0,34.3l-96.8,0z" class="st22"/>
    <path id="svg_10" d="m1289.3,495.80035l-35.6,-51.4l-2.1,0l-37.2,0l0,51.4l-42.7,0l0,-184.6l79.9,0c49.3,0 80.2,25.6 80.2,67c0,27.7 -14,48 -38,58.3l41.4,59.3l-45.9,0zm-40,-149.8l-34.8,0l0,64.4l34.8,0c26.1,0 39.3,-12.1 39.3,-32.2c-0.1,-20.3 -13.2,-32.2 -39.3,-32.2z" class="st22"/>
    <path id="svg_11" d="m1354,403.50035c0,-54.9 42.7,-95.5 101,-95.5c58,0 101,40.4 101,95.5c0,55.1 -43,95.5 -101,95.5c-58.3,0 -101,-40.6 -101,-95.5zm158.7,0c0,-35.1 -24.8,-59.1 -57.8,-59.1c-33,0 -57.8,24 -57.8,59.1c0,35.1 24.8,59.1 57.8,59.1c33,0 57.8,-24 57.8,-59.1z" class="st22"/>
    <path id="svg_12" d="m1757.5,311.20035l0,184.6l-35.1,0l-92,-112.1l0,112.1l-42.2,0l0,-184.6l35.3,0l91.8,112.1l0,-112.1l42.2,0z" class="st22"/>
    <path id="svg_13" d="m1839.5,346.00035l-59.1,0l0,-34.8l160.9,0l0,34.8l-59.1,0l0,149.8l-42.7,0l0,-149.8z" class="st22"/>
   </g>
  </g>
  <g id="svg_14">
   <path id="svg_15" d="m367,522.90035l-262,0c-56.7,0 -102.8,-46.1 -102.8,-102.8l0,-236.2c0,-56.7 46.1,-102.8 102.8,-102.8l254,0l-92,92l-162.1,-0.1c-6,0 -10.9,4.9 -10.9,10.9l0,236.2c0,6 4.9,10.9 10.9,10.9l170.1,0l92,91.9z" class="st4"/>
  </g>
  <g id="svg_16">
   <polygon id="svg_17" points="493.79998779296875,571.5003490447998 220.29998779296875,298.0003490447998 493.79998779296875,24.500349044799805 558.7999877929688,89.5003490447998 350.29998779296875,298.0003490447998 558.7999877929688,506.6003246307373 " class="st4"/>
  </g>
  <g id="svg_18">
   <path id="svg_19" d="m783.4,522.90035l-128.2,0l-91.9,-91.9l220.1,0c6,0 10.9,-4.9 10.9,-10.9l0,-236.2c0,-6 -4.9,-10.9 -10.9,-10.9l-227.7,-0.3l91.6,-91.6l136.1,0c56.7,0 102.8,46.1 102.8,102.8l0,236.2c-0.1,56.7 -46.2,102.8 -102.8,102.8z" class="st4"/>
  </g>
 </g>
</svg>